<?xml version="1.0" standalone="no"?><!DOCTYPE svg PUBLIC "-//W3C//DTD SVG 1.1//EN" "http://www.w3.org/Graphics/SVG/1.1/DTD/svg11.dtd"><svg t="1602675615897" class="icon" viewBox="0 0 1024 1024" version="1.1" xmlns="http://www.w3.org/2000/svg" p-id="954" xmlns:xlink="http://www.w3.org/1999/xlink" width="200" height="200"><defs><style type="text/css"></style></defs><path d="M331.093333 927.146667a86.186667 85.546667 90 1 0 171.093334 0 86.186667 85.546667 90 1 0-171.093334 0Z" fill="#2c2c2c" p-id="955"></path><path d="M651.733333 927.146667a86.186667 85.546667 90 1 0 171.093334 0 86.186667 85.546667 90 1 0-171.093334 0Z" fill="#2c2c2c" p-id="956"></path><path d="M881.493333 625.28a21.333333 21.333333 0 0 0 21.333334-15.786667L1024 178.133333a21.333333 21.333333 0 0 0-21.333333-27.306666H234.666667a45.226667 45.226667 0 0 0-1.493334-5.333334L192 37.76A40.96 40.96 0 0 0 161.706667 11.52H40.533333a42.666667 42.666667 0 0 0-40.533333 42.666667 42.666667 42.666667 0 0 0 40.533333 42.666666h85.333334l21.333333 54.186667 128 458.24a21.333333 21.333333 0 0 0 5.333333 8.96l-52.266666 122.88a39.466667 39.466667 0 0 0 21.333333 51.626667h1.493333a29.013333 29.013333 0 0 0 16 4.266666h597.333334a42.666667 42.666667 0 0 0 0-85.333333H326.613333l36.693334-85.333333h518.186666z" fill="#2c2c2c" p-id="957"></path></svg>